<?xml version="1.0" encoding="UTF-8"?>
<!-- Created with Inkscape (http://www.inkscape.org/) -->
<svg width="174.27mm" height="246.65mm" version="1.1" viewBox="0 0 174.27 246.65" xmlns="http://www.w3.org/2000/svg">
 <g transform="translate(-13.807 -12.56)">
  <path fill="#fff" d="m96.19 12.669c-20.602 2.6106-40.287 19.897-56.515 49.671-5.08 9.3486-11.43 24.271-14.57 34.219-3.0692 9.8425-5.9267 20.638-6.9144 26.282-0.10583 0.49389-0.24694 1.0936-0.3175 1.3406-0.07056 0.24694-0.24694 1.1994-0.35278 2.1167-0.14111 0.91722-0.35278 2.2225-0.52917 2.8928-0.17639 0.67028-0.56444 3.0692-0.88194 5.2917s-0.635 4.445-0.70556 4.9389c-0.17639 1.0936-0.59972 5.1153-0.70556 6.5264-0.03528 0.56444-0.21167 2.3283-0.3175 3.8806-0.14111 1.5522-0.3175 3.7747-0.38806 4.9389-0.24694 2.9281-0.24694 17.145 0 19.932 0.10583 1.27 0.24694 3.3161 0.35278 4.5861 1.5522 19.226 7.62 36.724 17.251 49.742 2.7869 3.7747 9.5603 10.689 12.735 13.053 1.1642 0.88195 2.1872 1.6581 2.2931 1.7639 0.59972 0.70556 6.2089 4.0217 9.5603 5.715 5.9619 2.9986 9.0311 4.1981 15.099 5.9267 3.9511 1.0936 12.735 2.928 12.982 2.6811 0.0706-0.0706 0.74084 0 1.4464 0.17639 4.7625 1.0936 23.213 1.1642 30.409 0.10583 17.992-2.6106 31.256-8.008 42.968-17.533 3.3867-2.7517 10.478-10.513 12.7-13.864 0.24694-0.35278 1.0231-1.5522 1.6933-2.6106 3.7042-5.6092 8.2903-16.157 10.266-23.46 0.45861-1.8344 1.1642-4.6567 1.3758-5.8208 0.10583-0.49389 0.24694-1.1642 0.35278-1.4817 0.10583-0.35278 0.24694-0.98778 0.3175-1.4111 0.35278-1.9756 0.9525-5.8914 1.0936-7.1614 0.0705-0.77611 0.24694-1.905 0.3175-2.5047 0.10583-0.59972 0.28222-2.3283 0.38805-3.8806 0.10584-1.5169 0.24695-3.4219 0.3175-4.198 0.21167-1.7286 0.21167-17.039 0.0353-19.226-0.10583-0.88194-0.24694-3.175-0.38805-5.1153s-0.28223-4.0217-0.35278-4.5861c-0.35278-2.7869-0.635-5.3622-0.70556-6.1736-0.0353-0.49389-0.17639-1.3758-0.28222-1.9403-0.14111-0.59972-0.3175-1.9403-0.42333-2.9986-0.14111-1.0583-0.45861-3.0692-0.70556-4.4097-0.28222-1.3758-0.56444-3.1044-0.70555-3.8806-0.10584-0.77611-0.28223-1.6933-0.38806-2.0108-0.21167-0.70556-0.45861-1.8344-0.70555-3.4572-0.35278-2.2225-3.9511-15.946-5.2564-20.108-4.0217-12.912-7.9375-22.684-13.37-33.514-15.24-30.409-34.784-49.424-55.245-53.799-2.4694-0.52917-10.901-0.9525-13.229-0.635z"/>
 </g>
</svg>
